HIERARCHY
ROOT mixamorig:Hips
{
	OFFSET 0.000000 35.082581 0.000000
	CHANNELS 6 Xposition Yposition Zposition Xrotation Yrotation Zrotation
	JOINT mixamorig:Spine
	{
		OFFSET 0.000000 6.876099 0.125700
		CHANNELS 3 Xrotation Yrotation Zrotation
		JOINT mixamorig:Spine1
		{
			OFFSET 0.000000 8.022060 0.146608
			CHANNELS 3 Xrotation Yrotation Zrotation
			JOINT mixamorig:Spine2
			{
				OFFSET 0.000000 9.168068 0.167552
				CHANNELS 3 Xrotation Yrotation Zrotation
				JOINT mixamorig:Neck
				{
					OFFSET 0.000000 10.314075 0.188496
					CHANNELS 3 Xrotation Yrotation Zrotation
					JOINT mixamorig:Head
					{
						OFFSET 0.000000 7.643700 -2.377400
						CHANNELS 3 Xrotation Yrotation Zrotation
						JOINT mixamorig:HeadTop_End
						{
							OFFSET 0.000000 43.788605 -13.619600
							CHANNELS 3 Xrotation Yrotation Zrotation
							End Site
							{
								OFFSET 0.000000 45.857773 0.000000
							}
						}
					}
				}
				JOINT mixamorig:LeftShoulder
				{
					OFFSET 4.392200 8.824978 0.174984
					CHANNELS 3 Xrotation Yrotation Zrotation
					JOINT mixamorig:LeftArm
					{
						OFFSET 8.771219 -2.981674 -0.026999
						CHANNELS 3 Xrotation Yrotation Zrotation
						JOINT mixamorig:LeftForeArm
						{
							OFFSET 8.512804 0.000000 -0.000000
							CHANNELS 3 Xrotation Yrotation Zrotation
							JOINT mixamorig:LeftHand
							{
								OFFSET 18.484802 0.000000 -0.000000
								CHANNELS 3 Xrotation Yrotation Zrotation
								JOINT mixamorig:LeftHandThumb1
								{
									OFFSET 2.499420 -1.158070 2.653252
									CHANNELS 3 Xrotation Yrotation Zrotation
									JOINT mixamorig:LeftHandThumb2
									{
										OFFSET 2.370079 -1.368366 1.368366
										CHANNELS 3 Xrotation Yrotation Zrotation
										JOINT mixamorig:LeftHandThumb3
										{
											OFFSET 2.676727 -1.545410 1.545409
											CHANNELS 3 Xrotation Yrotation Zrotation
											JOINT mixamorig:LeftHandThumb4
											{
												OFFSET 1.692226 -0.977005 0.977007
												CHANNELS 3 Xrotation Yrotation Zrotation
												End Site
												{
													OFFSET 1.583839 -0.994667 1.129075
												}
											}
										}
									}
								}
								JOINT mixamorig:LeftHandIndex1
								{
									OFFSET 7.924831 -0.457527 2.345128
									CHANNELS 3 Xrotation Yrotation Zrotation
									JOINT mixamorig:LeftHandIndex2
									{
										OFFSET 3.643303 0.000000 0.000000
										CHANNELS 3 Xrotation Yrotation Zrotation
										JOINT mixamorig:LeftHandIndex3
										{
											OFFSET 3.810799 0.000000 0.000000
											CHANNELS 3 Xrotation Yrotation Zrotation
											JOINT mixamorig:LeftHandIndex4
											{
												OFFSET 2.403702 0.000000 0.000000
												CHANNELS 3 Xrotation Yrotation Zrotation
												End Site
												{
													OFFSET 2.403702 -0.000061 -0.001699
												}
											}
										}
									}
								}
								JOINT mixamorig:LeftHandMiddle1
								{
									OFFSET 8.563995 0.000000 -0.000000
									CHANNELS 3 Xrotation Yrotation Zrotation
									JOINT mixamorig:LeftHandMiddle2
									{
										OFFSET 3.861618 0.000000 0.000000
										CHANNELS 3 Xrotation Yrotation Zrotation
										JOINT mixamorig:LeftHandMiddle3
										{
											OFFSET 3.701603 0.000000 0.000000
											CHANNELS 3 Xrotation Yrotation Zrotation
											JOINT mixamorig:LeftHandMiddle4
											{
												OFFSET 2.322544 0.000000 0.000000
												CHANNELS 3 Xrotation Yrotation Zrotation
												End Site
												{
													OFFSET 2.322502 0.000252 0.014398
												}
											}
										}
									}
								}
								JOINT mixamorig:LeftHandRing1
								{
									OFFSET 8.426460 -0.424637 -3.286992
									CHANNELS 3 Xrotation Yrotation Zrotation
									JOINT mixamorig:LeftHandRing2
									{
										OFFSET 3.126408 0.000000 0.000000
										CHANNELS 3 Xrotation Yrotation Zrotation
										JOINT mixamorig:LeftHandRing3
										{
											OFFSET 3.085026 0.000000 0.000000
											CHANNELS 3 Xrotation Yrotation Zrotation
											JOINT mixamorig:LeftHandRing4
											{
												OFFSET 1.644005 0.000000 0.000000
												CHANNELS 3 Xrotation Yrotation Zrotation
												End Site
												{
													OFFSET 1.643898 -0.000336 -0.018597
												}
											}
										}
									}
								}
							}
						}
					}
				}
				JOINT mixamorig:RightShoulder
				{
					OFFSET -4.392200 8.824993 0.141379
					CHANNELS 3 Xrotation Yrotation Zrotation
					JOINT mixamorig:RightArm
					{
						OFFSET -8.771282 -2.981682 -0.094208
						CHANNELS 3 Xrotation Yrotation Zrotation
						JOINT mixamorig:RightForeArm
						{
							OFFSET -8.494598 0.000000 0.000000
							CHANNELS 3 Xrotation Yrotation Zrotation
							JOINT mixamorig:RightHand
							{
								OFFSET -18.483803 0.000000 0.000001
								CHANNELS 3 Xrotation Yrotation Zrotation
								JOINT mixamorig:RightHandThumb1
								{
									OFFSET -2.527351 -1.008076 2.575253
									CHANNELS 3 Xrotation Yrotation Zrotation
									JOINT mixamorig:RightHandThumb2
									{
										OFFSET -2.321518 -1.340328 1.340329
										CHANNELS 3 Xrotation Yrotation Zrotation
										JOINT mixamorig:RightHandThumb3
										{
											OFFSET -2.657753 -1.534454 1.534455
											CHANNELS 3 Xrotation Yrotation Zrotation
											JOINT mixamorig:RightHandThumb4
											{
												OFFSET -1.807510 -1.043568 1.043567
												CHANNELS 3 Xrotation Yrotation Zrotation
												End Site
												{
													OFFSET -1.737583 -1.058830 1.142293
												}
											}
										}
									}
								}
								JOINT mixamorig:RightHandIndex1
								{
									OFFSET -8.811420 0.015533 2.887987
									CHANNELS 3 Xrotation Yrotation Zrotation
									JOINT mixamorig:RightHandIndex2
									{
										OFFSET -3.537502 0.000000 0.000000
										CHANNELS 3 Xrotation Yrotation Zrotation
										JOINT mixamorig:RightHandIndex3
										{
											OFFSET -3.356201 0.000000 0.000000
											CHANNELS 3 Xrotation Yrotation Zrotation
											JOINT mixamorig:RightHandIndex4
											{
												OFFSET -1.933098 0.000000 0.000000
												CHANNELS 3 Xrotation Yrotation Zrotation
												End Site
												{
													OFFSET -1.933102 0.000000 0.000000
												}
											}
										}
									}
								}
								JOINT mixamorig:RightHandMiddle1
								{
									OFFSET -8.178135 0.000000 0.000000
									CHANNELS 3 Xrotation Yrotation Zrotation
									JOINT mixamorig:RightHandMiddle2
									{
										OFFSET -3.901302 0.000000 0.000000
										CHANNELS 3 Xrotation Yrotation Zrotation
										JOINT mixamorig:RightHandMiddle3
										{
											OFFSET -3.909599 0.000000 0.000000
											CHANNELS 3 Xrotation Yrotation Zrotation
											JOINT mixamorig:RightHandMiddle4
											{
												OFFSET -2.376003 0.000000 0.000000
												CHANNELS 3 Xrotation Yrotation Zrotation
												End Site
												{
													OFFSET -2.376003 0.000076 0.004199
												}
											}
										}
									}
								}
								JOINT mixamorig:RightHandRing1
								{
									OFFSET -7.559013 0.014137 -2.865403
									CHANNELS 3 Xrotation Yrotation Zrotation
									JOINT mixamorig:RightHandRing2
									{
										OFFSET -3.449306 0.000000 0.000000
										CHANNELS 3 Xrotation Yrotation Zrotation
										JOINT mixamorig:RightHandRing3
										{
											OFFSET -3.362106 0.000000 0.000000
											CHANNELS 3 Xrotation Yrotation Zrotation
											JOINT mixamorig:RightHandRing4
											{
												OFFSET -2.076401 0.000000 0.000000
												CHANNELS 3 Xrotation Yrotation Zrotation
												End Site
												{
													OFFSET -2.076401 0.000046 0.001400
												}
											}
										}
									}
								}
							}
						}
					}
				}
			}
		}
	}
	JOINT mixamorig:LeftUpLeg
	{
		OFFSET 10.205400 -3.823500 0.155100
		CHANNELS 3 Xrotation Yrotation Zrotation
		JOINT mixamorig:LeftLeg
		{
			OFFSET 0.708757 -12.982077 0.567790
			CHANNELS 3 Xrotation Yrotation Zrotation
			JOINT mixamorig:LeftFoot
			{
				OFFSET -0.708756 -10.717838 -2.184338
				CHANNELS 3 Xrotation Yrotation Zrotation
				JOINT mixamorig:LeftToeBase
				{
					OFFSET 0.108149 -7.191104 7.560241
					CHANNELS 3 Xrotation Yrotation Zrotation
					JOINT mixamorig:LeftToe_End
					{
						OFFSET 0.070230 0.081724 4.490308
						CHANNELS 3 Xrotation Yrotation Zrotation
						End Site
						{
							OFFSET 0.070230 0.081724 4.490308
						}
					}
				}
			}
		}
	}
	JOINT mixamorig:RightUpLeg
	{
		OFFSET -10.205400 -3.823500 0.005500
		CHANNELS 3 Xrotation Yrotation Zrotation
		JOINT mixamorig:RightLeg
		{
			OFFSET -0.708756 -12.982134 0.610632
			CHANNELS 3 Xrotation Yrotation Zrotation
			JOINT mixamorig:RightFoot
			{
				OFFSET 0.708754 -10.717769 -1.945823
				CHANNELS 3 Xrotation Yrotation Zrotation
				JOINT mixamorig:RightToeBase
				{
					OFFSET -0.108140 -7.191069 7.372968
					CHANNELS 3 Xrotation Yrotation Zrotation
					JOINT mixamorig:RightToe_End
					{
						OFFSET -0.070227 0.081735 4.479403
						CHANNELS 3 Xrotation Yrotation Zrotation
						End Site
						{
							OFFSET -0.070227 0.081735 4.479404
						}
					}
				}
			}
		}
	}
}
MOTION
Frames: 5
Frame Time: 0.016667
4.266953 33.800449 0.157465 -5.405983 -12.141036 -6.531835 0.132262 -0.125316 0.935999 0.648412 0.493586 5.531540 0.642377 1.004613 5.432184 7.043893 -2.655888 -1.899268 26.126261 -12.141508 3.934430 0.000001 -0.000000 -0.000001 0.473718 -11.748244 -11.248911 47.840834 -17.029241 -64.898005 -0.000002 -83.541205 0.000009 11.008786 -38.706467 41.953173 -33.115657 -4.713250 23.091128 0.377390 31.933631 -0.041780 3.350631 14.547027 0.482146 -0.000001 -0.000002 0.000001 1.030236 -6.441668 -17.393099 0.267461 2.471076 -16.876875 0.034616 0.816839 -10.169835 -0.000000 0.000000 0.000002 0.013046 4.853447 -11.088673 0.541764 3.292219 -25.432935 0.172646 1.497154 -12.349666 0.000000 0.000001 -0.000001 0.677411 8.570527 -10.500128 0.453234 2.073522 -17.965359 0.189802 0.836428 -8.646192 0.000000 0.000002 0.000003 0.544580 4.353652 15.252227 57.785566 2.907402 44.667757 -0.001489 90.234053 0.001151 -0.423114 38.771617 -34.999634 -10.273256 0.612260 -22.395529 -0.918984 -26.980374 3.203998 2.980860 -12.496588 0.447284 -0.000002 0.000000 -0.000005 7.765145 3.013251 35.763062 0.100368 -1.763329 9.669285 -0.193126 -0.216328 13.843958 -0.000001 0.000001 0.000000 0.468042 -7.156815 19.564645 0.591350 -3.398723 26.609715 0.225367 -1.719526 16.217885 -0.000002 -0.000001 0.000002 1.123054 -10.879587 12.033327 0.992082 -3.039614 29.060221 -0.157926 0.035000 17.817921 -0.000001 0.000003 0.000000 -6.106757 15.434551 11.929320 34.674517 8.084625 0.042515 -22.229718 17.740781 -7.353392 -2.067472 0.000004 0.000003 0.000000 0.000001 0.000000 14.873367 -2.210112 11.093849 -2.306891 9.876733 2.219849 -8.075984 -17.860335 -11.146275 -2.177467 0.000001 0.000001 -0.000000 0.000001 0.000000 
4.187897 33.737457 0.131452 -5.511237 -12.635917 -6.986248 0.145696 -0.217203 1.183116 0.662780 0.473902 5.578772 0.656001 0.985290 5.479698 6.982831 -2.571673 -1.949237 25.959872 -11.770284 3.486954 -0.000001 -0.000001 -0.000000 0.473718 -11.748243 -11.248921 47.840800 -17.029251 -64.898005 0.000000 -83.584816 0.000038 10.553615 -38.601282 41.247953 -33.115670 -4.713243 23.091109 0.377382 31.933644 -0.041789 3.350642 14.547044 0.482149 -0.000003 -0.000005 0.000002 1.032331 -6.433003 -17.465077 0.267434 2.471095 -16.876885 0.034644 0.816830 -10.169841 0.000000 0.000001 -0.000003 0.011962 4.865938 -11.198942 0.541790 3.292230 -25.432969 0.172623 1.497156 -12.349668 0.000001 -0.000002 -0.000002 0.683547 8.581597 -10.611376 0.453237 2.073545 -17.965467 0.189791 0.836404 -8.646194 0.000001 0.000001 0.000000 0.544584 4.353670 15.252104 57.785928 2.892798 44.657816 -0.000845 90.238711 0.000898 -0.473327 38.795635 -34.972867 -10.273253 0.612267 -22.395535 -0.918975 -26.980378 3.203999 2.980860 -12.496598 0.447304 -0.000002 0.000003 -0.000000 7.765155 3.013251 35.763045 0.100370 -1.763332 9.669284 -0.193123 -0.216356 13.843960 0.000002 -0.000000 0.000004 0.468053 -7.156800 19.564619 0.591348 -3.398697 26.609722 0.225389 -1.719561 16.217886 -0.000000 -0.000001 -0.000003 1.123064 -10.879595 12.033309 0.992082 -3.039613 29.060225 -0.157926 0.035017 17.817911 0.000001 0.000003 0.000002 -6.608790 15.807983 12.916525 35.954918 7.958758 0.113400 -22.899828 17.841265 -7.867376 -2.077349 0.000003 0.000004 0.000000 0.000002 0.000000 14.750068 -2.060853 11.565954 -2.254871 9.869926 2.347004 -7.887091 -17.419313 -11.359057 -2.287375 0.000024 -0.000000 -0.000000 -0.000002 -0.000000 
4.111887 33.668720 0.108651 -5.627554 -13.116736 -7.404475 0.177829 -0.315274 1.405131 0.681760 0.452435 5.625659 0.674221 0.964131 5.526885 6.909788 -2.493899 -1.998118 25.787888 -11.427441 3.051650 -0.000001 0.000000 -0.000000 0.473718 -11.748235 -11.248946 47.840803 -17.029253 -64.898026 0.000121 -83.625073 0.000171 10.081363 -38.503385 40.295005 -33.115670 -4.713242 23.091113 0.377391 31.933638 -0.041785 3.350631 14.547031 0.482155 -0.000002 -0.000005 -0.000001 1.034433 -6.424267 -17.537896 0.267452 2.471094 -16.876882 0.034624 0.816852 -10.169831 0.000000 -0.000000 0.000000 0.010910 4.878518 -11.310518 0.541785 3.292235 -25.433031 0.172633 1.497147 -12.349677 0.000000 -0.000001 -0.000001 0.689738 8.592760 -10.723975 0.453251 2.073554 -17.965576 0.189768 0.836400 -8.646209 0.000001 -0.000002 0.000002 0.544578 4.353650 15.252217 57.786249 2.880527 44.649397 -0.005864 90.242939 0.004934 -0.515688 38.815869 -34.950273 -10.273254 0.612269 -22.395540 -0.918964 -26.980372 3.204027 2.980853 -12.496586 0.447283 -0.000002 0.000001 -0.000003 7.765152 3.013278 35.763051 0.100381 -1.763327 9.669284 -0.193136 -0.216348 13.843964 0.000001 -0.000001 0.000000 0.468060 -7.156804 19.564630 0.591323 -3.398724 26.609731 0.225363 -1.719550 16.217893 0.000001 -0.000003 0.000001 1.123057 -10.879585 12.033318 0.992105 -3.039604 29.060208 -0.157920 0.035026 17.817921 0.000000 0.000002 -0.000001 -7.056621 16.154415 13.844011 37.176621 7.833780 0.179287 -23.552787 17.955302 -8.358203 -2.055792 0.000015 -0.000000 0.000000 0.000001 0.000000 14.457439 -2.003049 12.016677 -1.731544 9.870738 2.402314 -7.966257 -16.947456 -11.561746 -2.412541 0.000007 0.000001 -0.000000 -0.000001 0.000000 
4.048670 33.615562 0.086801 -5.755464 -13.577346 -7.766192 0.222679 -0.407886 1.587622 0.701954 0.432093 5.667752 0.693728 0.944021 5.569276 6.840223 -2.422808 -2.045725 25.636666 -11.115834 2.651719 0.000000 -0.000002 0.000000 0.473715 -11.748244 -11.248906 47.840817 -17.029256 -64.898033 0.000031 -83.662372 0.000035 9.600709 -38.407363 39.150456 -33.115663 -4.713253 23.091124 0.377394 31.933621 -0.041794 3.350647 14.547036 0.482164 -0.000001 -0.000003 0.000001 1.036610 -6.415452 -17.611554 0.267436 2.471098 -16.876892 0.034632 0.816846 -10.169832 0.000000 0.000001 0.000001 0.009867 4.891257 -11.423360 0.541794 3.292241 -25.433079 0.172633 1.497156 -12.349678 -0.000000 0.000000 -0.000000 0.696060 8.604037 -10.837833 0.453255 2.073563 -17.965704 0.189781 0.836404 -8.646199 0.000001 -0.000002 -0.000004 0.544587 4.353662 15.252137 57.786467 2.870671 44.642659 -0.006298 90.245623 0.005204 -0.549597 38.832064 -34.932173 -10.273258 0.612242 -22.395524 -0.918988 -26.980357 3.203999 2.980844 -12.496594 0.447308 -0.000001 0.000003 -0.000001 7.765142 3.013238 35.763048 0.100369 -1.763320 9.669288 -0.193108 -0.216347 13.843970 0.000001 -0.000001 -0.000001 0.468046 -7.156813 19.564631 0.591335 -3.398697 26.609720 0.225371 -1.719555 16.217883 -0.000000 -0.000001 0.000000 1.123054 -10.879599 12.033313 0.992095 -3.039616 29.060225 -0.157947 0.035028 17.817913 -0.000001 0.000003 -0.000002 -7.336570 16.466333 14.605135 38.089523 7.726267 0.243853 -24.054371 18.104378 -8.771413 -1.996892 0.000006 0.000002 -0.000000 0.000002 0.000000 14.275375 -1.970052 12.371651 -1.421627 9.872723 2.474920 -7.923741 -16.480640 -11.715026 -2.541315 0.000025 0.000001 -0.000000 -0.000001 -0.000000 
3.992418 33.580017 0.069460 -5.891795 -14.016387 -8.050751 0.271159 -0.481064 1.716880 0.719506 0.415997 5.700875 0.710738 0.928094 5.602633 6.789636 -2.357697 -2.092621 25.533475 -10.835623 2.310859 -0.000003 0.000003 -0.000001 0.473719 -11.748241 -11.248948 47.840810 -17.029248 -64.898026 0.000064 -83.696892 0.000140 9.119812 -38.309305 37.870308 -33.115663 -4.713259 23.091128 0.377370 31.933624 -0.041796 3.350634 14.547043 0.482147 -0.000002 -0.000003 -0.000001 1.038802 -6.406553 -17.686022 0.267442 2.471096 -16.876889 0.034630 0.816841 -10.169833 -0.000001 0.000001 0.000001 0.008836 4.904152 -11.537443 0.541793 3.292241 -25.433125 0.172639 1.497170 -12.349675 0.000000 0.000001 -0.000001 0.702486 8.615420 -10.952956 0.453248 2.073559 -17.965810 0.189783 0.836404 -8.646218 0.000001 0.000001 0.000002 0.544585 4.353659 15.252171 57.786658 2.863449 44.637694 -0.003774 90.247918 0.001284 -0.574535 38.843955 -34.918878 -10.273262 0.612271 -22.395528 -0.918973 -26.980369 3.204017 2.980859 -12.496583 0.447283 -0.000000 -0.000001 0.000001 7.765163 3.013253 35.763038 0.100359 -1.763319 9.669282 -0.193118 -0.216346 13.843972 0.000000 -0.000001 -0.000001 0.468053 -7.156797 19.564628 0.591338 -3.398706 26.609700 0.225370 -1.719567 16.217879 0.000000 0.000001 0.000000 1.123047 -10.879594 12.033307 0.992100 -3.039615 29.060221 -0.157924 0.035015 17.817921 0.000000 0.000002 -0.000001 -7.407130 16.722470 15.155034 38.647676 7.643495 0.313859 -24.378847 18.321926 -9.115868 -1.903343 -0.000003 0.000008 0.000000 0.000002 0.000000 14.205549 -1.950780 12.614199 -1.303591 9.872727 2.576004 -7.795815 -16.024889 -11.840591 -2.661357 0.000025 0.000002 -0.000000 0.000000 0.000000 
